{
    "asset" : {
        "generator" : "Khronos glTF Blender I/O v1.4.40",
        "version" : "2.0"
    },
    "scene" : 0,
    "scenes" : [
        {
            "name" : "Scene",
            "nodes" : [
                0,
                1,
                2
            ]
        }
    ],
    "nodes" : [
        {
            "mesh" : 0,
            "name" : "WorkLight_Body",
            "translation" : [
                0.00024871155619621277,
                0.12234567105770111,
                -1.354513551632408e-05
            ]
        },
        {
            "mesh" : 1,
            "name" : "WorkLight_Foot",
            "translation" : [
                0.03651377186179161,
                0.09388673305511475,
                -8.95352495717816e-05
            ]
        },
        {
            "mesh" : 2,
            "name" : "WorkLight_Handle",
            "translation" : [
                -0.03509897738695145,
                0.0938982293009758,
                0.014667053706943989
            ]
        }
    ],
    "meshes" : [
        {
            "name" : "WorkLight_Body",
            "primitives" : [
                {
                    "attributes" : {
                        "POSITION" : 0,
                        "NORMAL" : 1,
                        "TEXCOORD_0" : 2
                    },
                    "indices" : 3
                },
                {
                    "attributes" : {
                        "POSITION" : 4,
                        "NORMAL" : 5,
                        "TEXCOORD_0" : 6
                    },
                    "indices" : 7
                }
            ]
        },
        {
            "name" : "WorkLight_Foot",
            "primitives" : [
                {
                    "attributes" : {
                        "POSITION" : 8,
                        "NORMAL" : 9,
                        "TEXCOORD_0" : 10
                    },
                    "indices" : 11
                }
            ]
        },
        {
            "name" : "WorkLight_Handle",
            "primitives" : [
                {
                    "attributes" : {
                        "POSITION" : 12,
                        "NORMAL" : 13,
                        "TEXCOORD_0" : 14
                    },
                    "indices" : 15
                }
            ]
        }
    ],
    "accessors" : [
        {
            "bufferView" : 0,
            "componentType" : 5126,
            "count" : 5568,
            "max" : [
                0.09678953886032104,
                0.15057606995105743,
                0.15653538703918457
            ],
            "min" : [
                -0.0970413088798523,
                -0.036333754658699036,
                -0.09360148757696152
            ],
            "type" : "VEC3"
        },
        {
            "bufferView" : 1,
            "componentType" : 5126,
            "count" : 5568,
            "type" : "VEC3"
        },
        {
            "bufferView" : 2,
            "componentType" : 5126,
            "count" : 5568,
            "type" : "VEC2"
        },
        {
            "bufferView" : 3,
            "componentType" : 5123,
            "count" : 20742,
            "type" : "SCALAR"
        },
        {
            "bufferView" : 4,
            "componentType" : 5126,
            "count" : 94,
            "max" : [
                0.0812830775976181,
                0.1353924721479416,
                0.03639665246009827
            ],
            "min" : [
                -0.0812830775976181,
                0.01398003101348877,
                -0.03492385521531105
            ],
            "type" : "VEC3"
        },
        {
            "bufferView" : 5,
            "componentType" : 5126,
            "count" : 94,
            "type" : "VEC3"
        },
        {
            "bufferView" : 6,
            "componentType" : 5126,
            "count" : 94,
            "type" : "VEC2"
        },
        {
            "bufferView" : 7,
            "componentType" : 5123,
            "count" : 246,
            "type" : "SCALAR"
        },
        {
            "bufferView" : 8,
            "componentType" : 5126,
            "count" : 544,
            "max" : [
                0.07812179625034332,
                0.0071563273668289185,
                0.08096912503242493
            ],
            "min" : [
                -0.15546223521232605,
                -0.09390091150999069,
                -0.10883939266204834
            ],
            "type" : "VEC3"
        },
        {
            "bufferView" : 9,
            "componentType" : 5126,
            "count" : 544,
            "type" : "VEC3"
        },
        {
            "bufferView" : 10,
            "componentType" : 5126,
            "count" : 544,
            "type" : "VEC2"
        },
        {
            "bufferView" : 11,
            "componentType" : 5123,
            "count" : 2724,
            "type" : "SCALAR"
        },
        {
            "bufferView" : 12,
            "componentType" : 5126,
            "count" : 614,
            "max" : [
                0.15546220541000366,
                0.24260661005973816,
                0.023411665111780167
            ],
            "min" : [
                -2.2351741790771484e-08,
                -0.00714527815580368,
                -0.05677616223692894
            ],
            "type" : "VEC3"
        },
        {
            "bufferView" : 13,
            "componentType" : 5126,
            "count" : 614,
            "type" : "VEC3"
        },
        {
            "bufferView" : 14,
            "componentType" : 5126,
            "count" : 614,
            "type" : "VEC2"
        },
        {
            "bufferView" : 15,
            "componentType" : 5123,
            "count" : 2526,
            "type" : "SCALAR"
        }
    ],
    "bufferViews" : [
        {
            "buffer" : 0,
            "byteLength" : 66816,
            "byteOffset" : 0
        },
        {
            "buffer" : 0,
            "byteLength" : 66816,
            "byteOffset" : 66816
        },
        {
            "buffer" : 0,
            "byteLength" : 44544,
            "byteOffset" : 133632
        },
        {
            "buffer" : 0,
            "byteLength" : 41484,
            "byteOffset" : 178176
        },
        {
            "buffer" : 0,
            "byteLength" : 1128,
            "byteOffset" : 219660
        },
        {
            "buffer" : 0,
            "byteLength" : 1128,
            "byteOffset" : 220788
        },
        {
            "buffer" : 0,
            "byteLength" : 752,
            "byteOffset" : 221916
        },
        {
            "buffer" : 0,
            "byteLength" : 492,
            "byteOffset" : 222668
        },
        {
            "buffer" : 0,
            "byteLength" : 6528,
            "byteOffset" : 223160
        },
        {
            "buffer" : 0,
            "byteLength" : 6528,
            "byteOffset" : 229688
        },
        {
            "buffer" : 0,
            "byteLength" : 4352,
            "byteOffset" : 236216
        },
        {
            "buffer" : 0,
            "byteLength" : 5448,
            "byteOffset" : 240568
        },
        {
            "buffer" : 0,
            "byteLength" : 7368,
            "byteOffset" : 246016
        },
        {
            "buffer" : 0,
            "byteLength" : 7368,
            "byteOffset" : 253384
        },
        {
            "buffer" : 0,
            "byteLength" : 4912,
            "byteOffset" : 260752
        },
        {
            "buffer" : 0,
            "byteLength" : 5052,
            "byteOffset" : 265664
        }
    ],
    "buffers" : [
        {
            "byteLength" : 270716,
            "uri" : "data:application/octet-stream;base64,"
        }
    ]
}
